<?xml version="1.0" standalone="no"?>
<!DOCTYPE svg PUBLIC "-//W3C//DTD SVG 20010904//EN"
 "http://www.w3.org/TR/2001/REC-SVG-20010904/DTD/svg10.dtd">
<svg version="1.0" xmlns="http://www.w3.org/2000/svg"
 width="260.000000pt" height="260.000000pt" viewBox="0 0 260.000000 260.000000"
 preserveAspectRatio="xMidYMid meet">
<metadata>
Created by potrace 1.11, written by Peter Selinger 2001-2013
</metadata>
<g transform="translate(0.000000,260.000000) scale(0.100000,-0.100000)"
fill="#000000" stroke="none">
<path d="M1925 901 c-139 -34 -242 -157 -253 -300 -8 -120 24 -215 99 -289 73
-72 116 -87 244 -87 105 0 114 2 177 33 75 36 123 88 160 168 19 40 23 66 23
144 0 85 -3 101 -28 150 -48 94 -109 145 -207 174 -55 16 -162 20 -215 7z
m148 -53 c97 -29 142 -121 142 -288 0 -168 -43 -252 -142 -279 -52 -15 -72
-13 -119 8 -81 37 -118 130 -119 296 0 103 2 114 30 170 24 49 38 64 75 83 50
25 76 27 133 10z"/>
<path d="M360 871 c0 -14 10 -21 33 -26 58 -13 57 -6 57 -280 0 -272 2 -264
-55 -282 -16 -5 -31 -17 -33 -26 -3 -15 12 -17 152 -17 149 0 156 1 156 20 0
19 -10 24 -65 32 -19 3 -20 12 -23 270 l-2 268 25 6 c38 9 95 -5 120 -30 25
-25 40 -90 30 -135 -9 -43 -47 -73 -99 -78 -36 -4 -46 -10 -46 -24 0 -55 145
-65 220 -15 74 48 101 155 61 234 -46 91 -82 102 -331 102 -191 0 -200 -1
-200 -19z"/>
<path d="M990 871 c0 -16 8 -20 38 -23 l37 -3 3 -277 c3 -306 8 -277 -60 -292
-16 -4 -28 -13 -28 -21 0 -13 25 -15 155 -15 145 0 155 1 155 19 0 14 -12 22
-45 30 l-45 11 0 125 0 125 24 0 c13 0 32 -3 41 -6 9 -4 50 -74 91 -155 l74
-149 110 0 c122 0 137 9 65 40 -46 20 -47 21 -183 235 l-32 50 51 24 c99 47
127 144 66 225 -49 64 -77 71 -309 74 -202 3 -208 3 -208 -17z m325 -45 c39
-17 53 -39 61 -98 10 -80 -44 -128 -143 -128 l-33 0 0 120 0 120 40 0 c22 0
56 -6 75 -14z"/>
</g>
</svg>
